<?xml version="1.0" encoding="UTF-8"?>
<!DOCTYPE svg PUBLIC "-//W3C//DTD SVG 1.1//EN" "http://www.w3.org/Graphics/SVG/1.1/DTD/svg11.dtd">
<!-- Creator: CorelDRAW -->
<svg xmlns="http://www.w3.org/2000/svg" xml:space="preserve" width="210mm" height="40mm" version="1.1" style="shape-rendering:geometricPrecision; text-rendering:geometricPrecision; image-rendering:optimizeQuality; fill-rule:evenodd; clip-rule:evenodd"
viewBox="0 0 21000 4000"
 xmlns:xlink="http://www.w3.org/1999/xlink"
 xmlns:xodm="http://www.corel.com/coreldraw/odm/2003">
 <defs>
  <style type="text/css">
   <![CDATA[
    .fil1 {fill:#2B2A29}
    .fil0 {fill:#FE5C0B;fill-rule:nonzero}
   ]]>
  </style>
 </defs>
 <g id="Слой_x0020_1">
  <metadata id="CorelCorpID_0Corel-Layer"/>
  <path class="fil0" d="M1054.77 653.08l18637.5 0c119.92,0 228.88,49.01 307.77,127.9 78.88,78.89 127.9,187.82 127.9,307.71l0 1883.77c0,119.9 -49.02,228.86 -127.9,307.74 -78.89,78.89 -187.87,127.87 -307.77,127.87l-18637.5 0c-119.89,0 -228.88,-48.98 -307.77,-127.87 -78.88,-78.88 -127.89,-187.84 -127.89,-307.74l0 -1883.77c0,-119.89 49.01,-228.82 127.89,-307.71 78.89,-78.89 187.85,-127.9 307.77,-127.9zm18637.5 238.66l-18637.5 0c-54.03,0 -103.35,22.24 -139.06,57.95 -35.71,35.71 -57.94,84.97 -57.94,139l0 1883.77c0,54.06 22.23,103.33 57.94,139.04 35.71,35.7 84.98,57.91 139.06,57.91l18637.5 0c54.09,0 103.35,-22.21 139.06,-57.91 35.71,-35.71 57.95,-84.98 57.95,-139.04l0 -1883.77c0,-54.03 -22.24,-103.29 -57.95,-139 -35.71,-35.71 -85.03,-57.95 -139.06,-57.95z"/>
  <path class="fil1" d="M7950.41 2455.95l811.29 0c115.71,0 199.92,-84.17 199.92,-199.9l0 -82.3c0,-133.22 -98.04,-151.06 -141.1,-176.34 84.65,-19.69 129.36,-86.95 129.36,-188.06 0,-143.08 -62.51,-246.9 -199.89,-246.9l-799.58 0 0 893.5zm243.15 -555.85l448.09 1.04c27.46,0.51 57.99,-22.48 58.57,-49.94l1 -53.03c-7.64,-33.16 -21.15,-49.8 -81.01,-50.57l-423.68 -0.31 -2.97 152.81zm3.79 367.71l421.58 -0.09c26.72,-1.35 59.97,-1.85 79.86,-23.54 12.14,-13.3 15.89,-25.68 15.89,-46.87l0 -47.01c0,-33.18 -20.64,-51.67 -76.36,-58.77l-340.86 0.39 -101.43 -191.8 1.32 367.69z"/>
  <path class="fil1" d="M4904.98 2455.95l235.15 0 -0.96 -697.82c259.73,494.08 93.35,177.96 362.57,697.82l207.56 -0.8c320.47,-622.57 79.97,-155.29 370.96,-720.7l0.53 721.5 246.95 0 0 -893.5 -234.69 0c-82.04,2.72 -133.6,18.6 -177.03,85.99 -64.46,100.01 -270.68,501.24 -311.42,579.43 -168.57,-332.81 -64.89,-126.24 -193.83,-383.43 -28.92,-40.38 -91.86,-281.99 -282.41,-281.99l-223.38 0 0 893.5z"/>
  <path class="fil1" d="M2412.2 2455.95l246.93 0 0 -434.98 388.02 0c54.87,0 82.28,-27.43 82.28,-82.31l0 -82.29c0,-45.11 -33.91,-82.3 -70.54,-82.3l-399.76 0 0 246.9 111.93 211.59 334.85 0c151.99,0 270.47,-75.25 270.47,-223.37l0 -211.63c0,-166.64 -133.65,-235.11 -305.77,-235.11l-658.41 0 0 893.5z"/>
  <path class="fil1" d="M15852.04 2455.95l232.98 -1.08c453.3,-453.73 197.85,-202.81 590.11,-586.74l0 587.82 246.92 0 0 -893.5 -199.88 0c-106.34,19.61 -236.05,178.97 -622.82,575.46l-0.38 -575.46 -246.93 0 0 893.5z"/>
  <path class="fil1" d="M17157.26 2455.95l246.9 0 0 -364.48 58.82 0c48.54,0 187.55,147.67 426.52,363.4l331.99 2.12 -531.03 -486.36 513.27 -408.18 -341 0c-61.2,40.99 -357.75,317.46 -399.75,317.46l-58.82 0 0 -317.46 -246.9 0 0 893.5z"/>
  <path class="fil1" d="M14583.22 1772.61l375.16 1.43 0 681.93 246.94 0 -0.66 -601.11 -246.26 -80.82 623.23 0 0 -211.59 -999.48 0c0.98,198.14 -0.11,21.64 1.07,210.16z"/>
  <path class="fil1" d="M6510.7 2453.24l269.99 -0.17 179.12 -339.64 363.32 -2.33 -181.61 -341.96 -181.71 344.29 105.84 201.47 367.36 0c54.41,108.69 29.02,60.33 71.9,141.28 3.71,6.99 -6.35,0 0,0l274.11 1.22c-134.81,-256.41 -67.17,-127.75 -265.21,-505.46 -121.7,-205.59 -132.7,-379.65 -362.99,-389.49l-183 2.67 -457.12 888.12z"/>
  <path class="fil1" d="M13721.12 2118.44l-0.78 1.5 363.33 -2.42 -181.5 -341.91 -181.83 344.33 1.59 0 104.34 198.46 367.33 0c54.43,108.72 29.1,60.3 71.9,141.25 3.7,7.04 -6.33,0 0,0l274.17 1.29c-134.85,-256.44 -67.2,-127.82 -265.33,-505.44 -121.61,-205.63 -132.62,-379.75 -362.92,-389.56l-182.92 2.7 -457.16 888.18 269.97 -0.24 179.1 -339.58 0.71 1.44z"/>
  <path class="fil1" d="M18783.7 2115.82l-0.04 0 363.33 -2.42 -181.64 -341.9 -181.69 344.32 -179.02 339.55 -270.06 0.27 457.14 -888.21 182.97 -2.68c230.31,9.85 241.28,183.89 362.97,389.57 198.13,377.62 130.49,248.96 265.27,505.43l-274.13 -1.28c-6.34,0 3.68,6.99 0,0 -42.9,-80.97 -17.46,-32.57 -71.87,-141.26l-367.45 0 -105.78 -201.39z"/>
  <path class="fil1" d="M9139.27 1772.64l375.19 1.48 0 681.9 246.94 0 -0.63 -601.09 -246.28 -80.81 623.19 0 0 -211.6 -999.44 0c1,198.08 -0.09,21.63 1.03,210.12z"/>
  <path class="fil1" d="M11670.32 2455.4l235.2 0 -0.95 -697.81c259.72,494.08 93.3,177.96 362.56,697.81l207.56 -0.75c320.45,-622.59 79.99,-155.33 370.95,-720.75l0.55 721.5 246.91 0 0 -893.5 -234.66 0c-82.06,2.77 -133.66,18.6 -177.07,86.04 -64.44,100.01 -270.66,501.19 -311.39,579.39 -168.54,-332.82 -64.91,-126.24 -193.84,-383.44 -28.91,-40.33 -91.84,-281.99 -282.36,-281.99l-223.46 0 0 893.5z"/>
  <path class="fil1" d="M10668.96 1564.8c-228.12,0 -366.06,96.76 -364.46,268.91l0 352.67c0,180.34 171.46,270.39 364.46,270.39l341.03 0c195.22,0 364.51,-80.61 364.51,-270.39l0 -387.91c-6.46,-181.38 -171.34,-233.67 -364.51,-233.67l-341.03 0zm-117.57 368.43l0 147.39c0,103.13 23.8,164.58 129.39,164.58l340.98 0c72.18,0 105.78,-55.98 105.78,-129.33l0 -246.91c-0.54,-43.84 -34.6,-103.35 -101.92,-105.8l-344.84 0c-103.06,0 -129.39,67.93 -129.39,170.07z"/>
  <path class="fil1" d="M3943.04 1570.76c-228.14,0 -366.17,96.76 -364.53,268.91l0 352.73c0,180.28 171.51,270.38 364.53,270.38l340.99 0c195.24,0 364.53,-80.61 364.53,-270.38l0 -387.98c-6.45,-181.37 -171.34,-233.66 -364.53,-233.66l-340.99 0zm-119.89 356.12l0 164.65c0,103.11 23.81,164.52 129.4,164.52l340.98 0c72.17,0 105.81,-55.91 105.81,-129.31l0 -246.83c0,-48.5 -39.5,-105.87 -82.3,-105.87l-364.49 0c-103.02,0 -129.4,50.7 -129.4,152.84z"/>
  <path class="fil1" d="M1095.23 2455.95l246.93 0 0 -646.17 578.02 0 0 646.17 245.06 0 0 -682.74c-2.07,-126.26 -101.92,-210.05 -234.3,-210.76l-835.71 0 0 893.5z"/>
 </g>
</svg>
